<?xml version="1.0" standalone="no"?><!DOCTYPE svg PUBLIC "-//W3C//DTD SVG 1.1//EN" "http://www.w3.org/Graphics/SVG/1.1/DTD/svg11.dtd"><svg t="1610533931272" class="icon" viewBox="0 0 1024 1024" version="1.1" xmlns="http://www.w3.org/2000/svg" p-id="10573" xmlns:xlink="http://www.w3.org/1999/xlink" width="200" height="200"><defs><style type="text/css"></style></defs><path d="M205.714041 407.303935a202.176506 202.176506 0 1 1 202.029254-202.029255 202.323757 202.323757 0 0 1-202.029254 202.029255z m0-315.854775a113.82552 113.82552 0 1 0 113.678268 113.82552 113.972772 113.972772 0 0 0-113.678268-113.82552zM374.317172 1023.993815a44.175493 44.175493 0 0 1-44.175493-44.175492V629.064909c0-54.63036-53.305095-98.805852-118.684824-98.805853s-117.801314 44.175493-117.801315 99.394859v350.164408a44.175493 44.175493 0 0 1-88.350985 0V629.064909c0-103.07615 92.768535-187.745845 206.888558-187.745845s207.03581 84.22794 207.03581 187.745845v350.753414a44.175493 44.175493 0 0 1-44.911751 44.175492zM975.398379 1023.993815a44.175493 44.175493 0 0 1-44.175493-44.175492V629.064909C931.222886 574.434549 877.181533 530.259056 811.801803 530.259056s-117.801314 44.175493-117.801314 99.394859v350.164408a44.175493 44.175493 0 0 1-88.350986 0V629.064909c0-103.07615 92.915787-187.745845 206.1523-187.745845S1019.573872 525.547004 1019.573872 629.064909v350.753414a44.175493 44.175493 0 0 1-44.175493 44.175492zM818.280876 404.358902a202.176506 202.176506 0 1 1 202.176505-202.029254 202.323757 202.323757 0 0 1-202.176505 202.029254z m0-315.854774a113.82552 113.82552 0 1 0 113.82552 113.82552A113.82552 113.82552 0 0 0 818.280876 88.504128z" fill="#ffffff" p-id="10574"></path><path d="M311.851622 689.15771m31.236791-31.23679l0 0q31.236791-31.236791 62.473581 0l145.771689 145.771689q31.236791 31.236791 0 62.473581l0 0q-31.236791 31.236791-62.473581 0l-145.771689-145.771689q-31.236791-31.236791 0-62.473581Z" fill="#ffffff" p-id="10575"></path><path d="M630.160308 654.625732m32.049077 30.402809l0 0q32.049077 30.40281 1.646268 62.451887l-111.476969 117.513283q-30.40281 32.049077-62.451886 1.646268l0 0q-32.049077-30.40281-1.646268-62.451887l111.476968-117.513283q30.40281-32.049077 62.451887-1.646268Z" fill="#ffffff" p-id="10576"></path></svg>